<svg width="17" height="16" viewBox="0 0 17 16" fill="none" xmlns="http://www.w3.org/2000/svg">
<path d="M9.69719 14.9307L8.90442 15.717C8.56874 16.0499 8.02595 16.0499 7.69384 15.717L0.751758 8.83542C0.416081 8.5025 0.416081 7.96416 0.751758 7.63478L7.69384 0.749691C8.02952 0.41677 8.57231 0.41677 8.90442 0.749691L9.69719 1.53595C10.0364 1.87241 10.0293 2.42138 9.6829 2.75076L5.37981 6.81665H15.643C16.1179 6.81665 16.5 7.19561 16.5 7.66666V8.80001C16.5 9.27106 16.1179 9.65002 15.643 9.65002H5.37981L9.6829 13.7159C10.0329 14.0453 10.04 14.5943 9.69719 14.9307Z" fill="#095769"/>
</svg>
