<svg width="16" height="13" viewBox="0 0 16 13" fill="none" xmlns="http://www.w3.org/2000/svg">
<path d="M10.4 8.53513H11.6C11.8 8.53513 12 8.33162 12 8.12811V3.85442C12 3.65092 11.8 3.44741 11.6 3.44741H10.4C10.2 3.44741 10 3.65092 10 3.85442V8.12811C10 8.33162 10.2 8.53513 10.4 8.53513ZM13.4 8.53513H14.6C14.8 8.53513 15 8.33162 15 8.12811V0.801793C15 0.598284 14.8 0.394775 14.6 0.394775H13.4C13.2 0.394775 13 0.598284 13 0.801793V8.12811C13 8.33162 13.2 8.53513 13.4 8.53513ZM4.4 8.53513H5.6C5.8 8.53513 6 8.33162 6 8.12811V5.88951C6 5.686 5.8 5.48249 5.6 5.48249H4.4C4.2 5.48249 4 5.686 4 5.88951V8.12811C4 8.33162 4.2 8.53513 4.4 8.53513ZM7.4 8.53513H8.6C8.8 8.53513 9 8.33162 9 8.12811V1.81934C9 1.61583 8.8 1.41232 8.6 1.41232H7.4C7.2 1.41232 7 1.61583 7 1.81934V8.12811C7 8.33162 7.2 8.53513 7.4 8.53513ZM15.5 10.5702H2V0.903547C2 0.622451 1.77625 0.394775 1.5 0.394775H0.5C0.22375 0.394775 0 0.622451 0 0.903547V11.5878C0 12.1496 0.447812 12.6053 1 12.6053H15.5C15.7762 12.6053 16 12.3776 16 12.0965V11.079C16 10.7979 15.7762 10.5702 15.5 10.5702Z" fill="white"/>
</svg>
