<svg width="16" height="13" viewBox="0 0 16 13" fill="none" xmlns="http://www.w3.org/2000/svg">
<path d="M6.97258 12.821L5.4477 12.383C5.28771 12.3385 5.19772 12.1727 5.24271 12.0144L8.65495 0.380957C8.69994 0.222612 8.86743 0.133542 9.02742 0.178077L10.5523 0.616001C10.7123 0.660535 10.8023 0.826303 10.7573 0.984648L7.34505 12.6181C7.29755 12.7764 7.13257 12.868 6.97258 12.821ZM4.1228 10.045L5.21022 8.89696C5.32521 8.77573 5.31771 8.58275 5.19022 8.47141L2.9254 6.49952L5.19022 4.52762C5.31771 4.41629 5.32771 4.2233 5.21022 4.10207L4.1228 2.95407C4.01031 2.83531 3.82033 2.82789 3.69784 2.9417L0.0956175 6.28179C-0.0318725 6.39808 -0.0318725 6.59848 0.0956175 6.71477L3.69784 10.0573C3.82033 10.1711 4.01031 10.1662 4.1228 10.045ZM12.3022 10.0598L15.9044 6.71724C16.0319 6.60096 16.0319 6.40055 15.9044 6.28427L12.3022 2.93922C12.1822 2.82789 11.9922 2.83283 11.8772 2.95159L10.7898 4.0996C10.6748 4.22083 10.6823 4.41381 10.8098 4.52515L13.0746 6.49952L10.8098 8.47141C10.6823 8.58275 10.6723 8.77573 10.7898 8.89696L11.8772 10.045C11.9897 10.1662 12.1797 10.1711 12.3022 10.0598Z" fill="white"/>
</svg>
