<svg width="16" height="17" viewBox="0 0 16 17" fill="none" xmlns="http://www.w3.org/2000/svg">
<path d="M15.3687 10.4226L13.972 9.62903C14.113 8.88064 14.113 8.1129 13.972 7.36452L15.3687 6.57097C15.5294 6.48065 15.6015 6.29356 15.5491 6.11936C15.1851 4.97098 14.5655 3.93228 13.7556 3.06776C13.6311 2.9355 13.4278 2.90325 13.2704 2.99357L11.8737 3.78711C11.2868 3.29034 10.6115 2.90647 9.88032 2.65486V1.071C9.88032 0.890351 9.75245 0.732287 9.57213 0.693578C8.36888 0.429063 7.13612 0.441966 5.99188 0.693578C5.81155 0.732287 5.68369 0.890351 5.68369 1.071V2.65809C4.95583 2.91292 4.28044 3.29679 3.69029 3.79034L2.29687 2.99679C2.13622 2.90647 1.93623 2.9355 1.81164 3.07099C1.00182 3.93228 0.38216 4.97098 0.018233 6.12259C-0.0375035 6.29678 0.0379048 6.48388 0.198557 6.5742L1.59525 7.36775C1.45427 8.11613 1.45427 8.88387 1.59525 9.63225L0.198557 10.4258C0.0379048 10.5161 -0.0342249 10.7032 0.018233 10.8774C0.38216 12.0258 1.00182 13.0645 1.81164 13.929C1.93623 14.0613 2.1395 14.0935 2.29687 14.0032L3.69357 13.2097C4.28044 13.7064 4.95583 14.0903 5.68697 14.3419V15.929C5.68697 16.1096 5.81483 16.2677 5.99516 16.3064C7.19841 16.5709 8.43117 16.558 9.57541 16.3064C9.75573 16.2677 9.8836 16.1096 9.8836 15.929V14.3419C10.6115 14.0871 11.2868 13.7032 11.877 13.2097L13.2737 14.0032C13.4343 14.0935 13.6343 14.0645 13.7589 13.929C14.5687 13.0677 15.1884 12.029 15.5523 10.8774C15.6015 10.7 15.5294 10.5129 15.3687 10.4226ZM7.782 11.0774C6.33613 11.0774 5.15911 9.91935 5.15911 8.49677C5.15911 7.0742 6.33613 5.91614 7.782 5.91614C9.22787 5.91614 10.4049 7.0742 10.4049 8.49677C10.4049 9.91935 9.22787 11.0774 7.782 11.0774Z" fill="white"/>
</svg>
