<svg width="3" height="10" viewBox="0 0 3 10" fill="none" xmlns="http://www.w3.org/2000/svg">
<path d="M1.45161 3.54839C2.25403 3.54839 2.90323 4.19758 2.90323 5C2.90323 5.80242 2.25403 6.45161 1.45161 6.45161C0.649194 6.45161 0 5.80242 0 5C0 4.19758 0.649194 3.54839 1.45161 3.54839ZM0 1.45161C0 2.25403 0.649194 2.90323 1.45161 2.90323C2.25403 2.90323 2.90323 2.25403 2.90323 1.45161C2.90323 0.649194 2.25403 0 1.45161 0C0.649194 0 0 0.649194 0 1.45161ZM0 8.54839C0 9.35081 0.649194 10 1.45161 10C2.25403 10 2.90323 9.35081 2.90323 8.54839C2.90323 7.74597 2.25403 7.09677 1.45161 7.09677C0.649194 7.09677 0 7.74597 0 8.54839Z" fill="#536C79"/>
</svg>
