<svg width="5" height="17" viewBox="0 0 5 17" fill="none" xmlns="http://www.w3.org/2000/svg">
<path d="M2.75 6.25C3.99375 6.25 5 7.25625 5 8.5C5 9.74375 3.99375 10.75 2.75 10.75C1.50625 10.75 0.5 9.74375 0.5 8.5C0.5 7.25625 1.50625 6.25 2.75 6.25ZM0.5 3C0.5 4.24375 1.50625 5.25 2.75 5.25C3.99375 5.25 5 4.24375 5 3C5 1.75625 3.99375 0.75 2.75 0.75C1.50625 0.75 0.5 1.75625 0.5 3ZM0.5 14C0.5 15.2437 1.50625 16.25 2.75 16.25C3.99375 16.25 5 15.2437 5 14C5 12.7563 3.99375 11.75 2.75 11.75C1.50625 11.75 0.5 12.7563 0.5 14Z" fill="#095769"/>
</svg>
