<svg width="8" height="9" viewBox="0 0 8 9" fill="none" xmlns="http://www.w3.org/2000/svg">
<path d="M5.42167 2.04348C4.57108 2.04348 3.86859 1.5 2.79917 1.5C2.40306 1.5 2.04824 1.5685 1.7191 1.6877C1.76471 1.57043 1.78412 1.44486 1.77602 1.31954C1.74789 0.875229 1.37787 0.518838 0.926 0.500744C0.418175 0.480401 0 0.87962 0 1.375C0 1.67228 0.150746 1.93476 0.380952 2.09289V8.125C0.380952 8.33211 0.551508 8.5 0.761905 8.5H1.01587C1.22627 8.5 1.39683 8.33211 1.39683 8.125V6.65C1.84621 6.4615 2.40606 6.30434 3.21325 6.30434C4.06386 6.30434 4.76633 6.84783 5.83575 6.84783C6.60033 6.84783 7.21141 6.59323 7.78027 6.20942C7.9181 6.11644 8 5.96205 8 5.79758V1.99914C8 1.63362 7.61478 1.39179 7.27802 1.54576C6.73297 1.79495 6.06446 2.04348 5.42167 2.04348Z" fill="white"/>
</svg>
