<svg width="119" height="21" viewBox="0 0 119 21" fill="none" xmlns="http://www.w3.org/2000/svg">
<path d="M3.49908 14V0H17.4991L3.49908 14Z" fill="white"/>
<path d="M14.2046 7V21H0.205078L14.2046 7Z" fill="white"/>
<path d="M30.0191 17.9295C28.6385 17.9295 27.3675 17.5794 26.469 16.5056L26.4251 16.5275L26.447 18.3026V20.9323H24.3213V4.69361L25.8115 4.58355L26.2498 5.94226C27.1921 4.9785 28.5508 4.40872 30.1282 4.40872C33.3277 4.40872 35.1247 6.07423 35.1247 11.136C35.1247 15.9577 33.1529 17.9295 30.0191 17.9295ZM29.6247 6.3148C28.2221 6.3148 27.1264 6.86267 26.447 7.84882V14.5542C26.9511 15.4093 27.9811 16.154 29.5151 16.154C31.5531 16.154 32.9776 15.1678 32.9776 11.1355C32.9776 7.34528 31.8161 6.3148 29.6247 6.3148Z" fill="white"/>
<path d="M45.3593 16.0887L45.2936 16.0668C44.5266 17.1844 43.1021 17.8852 41.4147 17.8852C39.026 17.8852 37.4048 16.6366 37.4048 13.7C37.4048 11.2451 38.9827 9.73348 42.094 9.73348C43.2117 9.73348 44.2855 9.95214 45.0963 10.237V8.94455C45.0963 6.88458 44.1759 6.1614 42.0507 6.1614C40.6701 6.1614 39.5524 6.40246 38.391 6.95033L38.1937 5.21908C39.4429 4.6493 40.8454 4.36441 42.4013 4.36441C45.8419 4.36441 47.1349 5.81077 47.1349 9.25087V17.688H45.557L45.3593 16.0887ZM45.0744 11.7277C44.7457 11.531 43.7815 11.2456 42.4671 11.2456C40.2975 11.2456 39.3552 12.1227 39.3552 13.6786C39.3552 15.5408 40.4724 16.1764 41.9845 16.1764C43.6061 16.1764 45.0744 15.0806 45.0744 13.9849V11.7277Z" fill="white"/>
<path d="M50.575 17.6885V4.71553L52.2405 4.60547L52.4158 7.41053H52.4596C53.2705 5.52637 54.6949 4.43064 56.47 4.43064C56.9521 4.43064 57.4123 4.49638 57.763 4.60547L57.6315 6.70927C57.237 6.57729 56.7987 6.53395 56.3385 6.53395C54.3005 6.53395 52.6569 8.2652 52.6569 11.0703V17.6885H50.575Z" fill="white"/>
<path d="M67.2739 16.0887L67.2077 16.0668C66.4411 17.1844 65.0167 17.8852 63.3293 17.8852C60.9406 17.8852 59.3189 16.6366 59.3189 13.7C59.3189 11.2451 60.8967 9.73348 64.0086 9.73348C65.1263 9.73348 66.2001 9.95214 67.0109 10.237V8.94455C67.0109 6.88458 66.09 6.1614 63.9648 6.1614C62.5842 6.1614 61.4665 6.40246 60.305 6.95033L60.1078 5.21908C61.357 4.6493 62.7595 4.36441 64.3154 4.36441C67.7555 4.36441 69.049 5.81077 69.049 9.25087V17.688H67.4711L67.2739 16.0887ZM66.989 11.7277C66.6598 11.531 65.696 11.2456 64.3812 11.2456C62.2121 11.2456 61.2693 12.1227 61.2693 13.6786C61.2693 15.5408 62.3869 16.1764 63.899 16.1764C65.5202 16.1764 66.989 15.0806 66.989 13.9849V11.7277Z" fill="white"/>
<path d="M75.9082 17.951C74.3523 17.951 72.9059 17.5789 71.8979 16.8552L72.1608 15.0587C73.147 15.8033 74.6372 16.1983 75.8863 16.1983C77.7924 16.1983 78.5813 15.2774 78.5813 14.0506C78.5813 11.0927 71.8974 12.4728 71.8974 8.06846C71.8974 5.85509 73.4533 4.40872 76.4556 4.40872C77.7262 4.40872 78.9315 4.6717 79.9834 5.15333L79.8085 6.90698C78.7128 6.44678 77.4637 6.20572 76.4113 6.20572C74.8558 6.20572 73.8692 6.88507 73.8692 7.95888C73.8692 10.7415 80.5093 9.29567 80.5093 13.8539C80.5098 16.3074 79.1292 17.951 75.9082 17.951Z" fill="white"/>
<path d="M91.5109 17.6885V9.0327C91.5109 7.27953 90.5681 6.31529 88.5524 6.31529C87.1937 6.31529 86.0104 6.97322 85.4844 7.80597V17.689H83.4249V0.398358L85.4844 0.266871V4.0576L85.4625 5.81126L85.5063 5.83317C86.4491 4.84702 87.7854 4.38681 89.166 4.38681C92.0154 4.38681 93.5709 6.05232 93.5709 9.03221V17.6885H91.5109Z" fill="white"/>
<path d="M98.6112 2.4369C97.7127 2.4369 97.2744 2.15201 97.2744 1.31926C97.2744 0.596076 97.7127 0.201614 98.6112 0.201614C99.5097 0.201614 99.948 0.596076 99.948 1.31926C99.948 2.08578 99.5097 2.4369 98.6112 2.4369ZM97.5593 17.6885V4.69361L99.6412 4.58355V17.6885H97.5593Z" fill="white"/>
<path d="M104.682 6.22763H102.754V4.62787H104.682V4.03618C104.682 1.84521 105.953 0.245443 108.955 0.245443C109.634 0.245443 110.401 0.355016 110.883 0.508418L110.751 1.93287C110.336 1.82281 109.831 1.75755 109.327 1.75755C107.509 1.75755 106.763 2.61222 106.763 4.05858V4.62836H110.116V6.22812H106.763V17.6894H104.682V6.22763Z" fill="white"/>
<path d="M115.573 6.24955V14.2703C115.573 15.6285 116.296 16.1764 117.479 16.1764C117.852 16.1764 118.312 16.1106 118.575 16.0015L118.707 17.5794C118.312 17.7761 117.589 17.9076 116.888 17.9076C114.653 17.9076 113.491 16.659 113.491 14.336V6.24955H111.673V4.62787H113.557L113.952 1.385L115.573 1.20968V4.62836H118.795V6.25003H115.573V6.24955Z" fill="white"/>
</svg>
