<svg width="10" height="11" viewBox="0 0 10 11" fill="none" xmlns="http://www.w3.org/2000/svg">
<path d="M9.28571 6.57143H6.07143V9.78571C6.07143 10.1801 5.75156 10.5 5.35714 10.5H4.64286C4.24844 10.5 3.92857 10.1801 3.92857 9.78571V6.57143H0.714286C0.319866 6.57143 0 6.25156 0 5.85714V5.14286C0 4.74844 0.319866 4.42857 0.714286 4.42857H3.92857V1.21429C3.92857 0.819866 4.24844 0.5 4.64286 0.5H5.35714C5.75156 0.5 6.07143 0.819866 6.07143 1.21429V4.42857H9.28571C9.68013 4.42857 10 4.74844 10 5.14286V5.85714C10 6.25156 9.68013 6.57143 9.28571 6.57143Z" fill="#095769"/>
</svg>
