<svg width="12" height="16" viewBox="0 0 12 16" fill="none" xmlns="http://www.w3.org/2000/svg">
<path d="M5.61499 0C3.07461 0 1.4292 1.02197 0.137389 2.84456C-0.0969513 3.17519 -0.0247047 3.6285 0.302187 3.87188L1.67513 4.89403C2.00527 5.13981 2.475 5.08234 2.73346 4.76441C3.53069 3.78375 4.12206 3.21913 5.36734 3.21913C6.34646 3.21913 7.55753 3.83784 7.55753 4.77009C7.55753 5.47484 6.96501 5.83678 5.99824 6.36897C4.87085 6.98959 3.37894 7.76197 3.37894 9.69413V10C3.37894 10.4142 3.72092 10.75 4.14278 10.75H6.44929C6.87115 10.75 7.21313 10.4142 7.21313 10V9.81959C7.21313 8.48022 11.2 8.42444 11.2 4.8C11.2 2.0705 8.31647 0 5.61499 0ZM5.29605 11.6706C4.0804 11.6706 3.09138 12.6417 3.09138 13.8353C3.09138 15.0289 4.0804 16 5.29605 16C6.5117 16 7.50072 15.0289 7.50072 13.8353C7.50072 12.6417 6.5117 11.6706 5.29605 11.6706Z" fill="white"/>
</svg>
