<svg width="12" height="13" viewBox="0 0 12 13" fill="none" xmlns="http://www.w3.org/2000/svg">
<path d="M11.8368 10.8748L9.49991 8.53828C9.39444 8.43282 9.25146 8.37423 9.10145 8.37423H8.71939C9.36631 7.54697 9.75071 6.50644 9.75071 5.37452C9.75071 2.68182 7.56852 0.5 4.87536 0.5C2.18219 0.5 0 2.68182 0 5.37452C0 8.06723 2.18219 10.249 4.87536 10.249C6.00747 10.249 7.04817 9.86471 7.87558 9.2179V9.59989C7.87558 9.74988 7.93417 9.89283 8.03965 9.99829L10.3765 12.3348C10.5969 12.5551 10.9531 12.5551 11.1711 12.3348L11.8345 11.6716C12.0548 11.4513 12.0548 11.0951 11.8368 10.8748ZM4.87536 8.37423C3.2182 8.37423 1.87514 7.03374 1.87514 5.37452C1.87514 3.71765 3.21586 2.37482 4.87536 2.37482C6.53251 2.37482 7.87558 3.71531 7.87558 5.37452C7.87558 7.03139 6.53485 8.37423 4.87536 8.37423Z" fill="#3E515B"/>
</svg>
