<svg width="16" height="16" viewBox="0 0 16 16" fill="none" xmlns="http://www.w3.org/2000/svg">
<path d="M11.7006 3.93494C10.6922 3.01553 9.38348 2.51154 7.9951 2.51273C5.49645 2.51487 3.33935 4.18301 2.74377 6.49699C2.70042 6.66543 2.54629 6.78438 2.36794 6.78438H0.519452C0.277581 6.78438 0.0938387 6.57058 0.138581 6.33912C0.836548 2.73021 4.09074 0 8 0C10.1435 0 12.09 0.82091 13.5263 2.15734L14.6784 1.03556C15.1661 0.560685 16 0.897015 16 1.56861V5.77929C16 6.19562 15.6534 6.53311 15.2258 6.53311H10.9013C10.2116 6.53311 9.86616 5.72115 10.3539 5.24624L11.7006 3.93494ZM0.774194 9.04584H5.09868C5.78842 9.04584 6.13384 9.8578 5.64613 10.3327L4.29935 11.644C5.30781 12.5635 6.61661 13.0675 8.00503 13.0662C10.5024 13.064 12.6604 11.397 13.2562 9.08202C13.2996 8.91358 13.4537 8.79463 13.6321 8.79463H15.4806C15.7225 8.79463 15.9062 9.00843 15.8615 9.23989C15.1635 12.8487 11.9093 15.5789 8 15.5789C5.85652 15.5789 3.90997 14.758 2.47371 13.4216L1.32161 14.5434C0.833903 15.0183 0 14.6819 0 14.0103V9.79966C0 9.38333 0.346613 9.04584 0.774194 9.04584Z" fill="#3E515B"/>
</svg>
