<svg width="16" height="16" viewBox="0 0 16 16" fill="none" xmlns="http://www.w3.org/2000/svg">
<path d="M9.25 11.9994H6.75C6.33437 11.9994 6 11.665 6 11.2493V5.99854H3.25938C2.70312 5.99854 2.425 5.32656 2.81875 4.93275L7.57188 0.175807C7.80625 -0.0586023 8.19063 -0.0586023 8.425 0.175807L13.1812 4.93275C13.575 5.32656 13.2969 5.99854 12.7406 5.99854H10V11.2493C10 11.665 9.66562 11.9994 9.25 11.9994ZM16 11.7494V15.2499C16 15.6656 15.6656 16 15.25 16H0.75C0.334375 16 0 15.6656 0 15.2499V11.7494C0 11.3337 0.334375 10.9993 0.75 10.9993H5V11.2493C5 12.2151 5.78438 12.9996 6.75 12.9996H9.25C10.2156 12.9996 11 12.2151 11 11.2493V10.9993H15.25C15.6656 10.9993 16 11.3337 16 11.7494ZM12.125 14.4998C12.125 14.156 11.8438 13.8747 11.5 13.8747C11.1562 13.8747 10.875 14.156 10.875 14.4998C10.875 14.8436 11.1562 15.1249 11.5 15.1249C11.8438 15.1249 12.125 14.8436 12.125 14.4998ZM14.125 14.4998C14.125 14.156 13.8438 13.8747 13.5 13.8747C13.1562 13.8747 12.875 14.156 12.875 14.4998C12.875 14.8436 13.1562 15.1249 13.5 15.1249C13.8438 15.1249 14.125 14.8436 14.125 14.4998Z" fill="#3E515B"/>
</svg>
