<svg width="10" height="11" viewBox="0 0 10 11" fill="none" xmlns="http://www.w3.org/2000/svg">
<path d="M5 0.631592C2.2379 0.631592 0 2.8106 0 5.50001C0 8.18942 2.2379 10.3684 5 10.3684C7.7621 10.3684 10 8.18942 10 5.50001C10 2.8106 7.7621 0.631592 5 0.631592ZM7.45161 6.77797C7.54637 6.87024 7.54637 7.01943 7.45161 7.1117L6.65323 7.88711C6.55847 7.97937 6.40524 7.97937 6.31048 7.88711L5 6.59933L3.6875 7.88711C3.59274 7.97937 3.43952 7.97937 3.34476 7.88711L2.54839 7.10973C2.45363 7.01747 2.45363 6.86828 2.54839 6.77601L3.87097 5.50001L2.54839 4.22205C2.45363 4.12979 2.45363 3.98059 2.54839 3.88833L3.34677 3.11095C3.44153 3.01869 3.59476 3.01869 3.68952 3.11095L5 4.40069L6.3125 3.11292C6.40726 3.02065 6.56048 3.02065 6.65524 3.11292L7.45363 3.89029C7.54839 3.98256 7.54839 4.13175 7.45363 4.22402L6.12903 5.50001L7.45161 6.77797Z" fill="#869FAC"/>
</svg>
