<svg width="16" height="16" viewBox="0 0 16 16" fill="none" xmlns="http://www.w3.org/2000/svg">
<path d="M16 3.71429V4.25001C16 4.32105 15.9719 4.38918 15.9219 4.43941C15.8719 4.48964 15.8041 4.51786 15.7333 4.51786H14.9333V4.91965C14.9333 5.14154 14.7542 5.32143 14.5333 5.32143H1.46667C1.24577 5.32143 1.06667 5.14154 1.06667 4.91965V4.51786H0.266667C0.195942 4.51786 0.128115 4.48964 0.0781049 4.43941C0.0280951 4.38918 0 4.32105 0 4.25001V3.71429C3.81381e-07 3.6613 0.0156493 3.6095 0.0449667 3.56544C0.0742841 3.52139 0.115953 3.48706 0.1647 3.46679L7.89803 0.520366C7.96332 0.493211 8.03668 0.493211 8.10197 0.520366L15.8353 3.46679C15.884 3.48706 15.9257 3.52139 15.955 3.56544C15.9844 3.6095 16 3.6613 16 3.71429ZM15.2 13.8929H0.8C0.358167 13.8929 0 14.2526 0 14.6964V15.2321C0 15.3032 0.0280951 15.3713 0.0781049 15.4215C0.128115 15.4718 0.195942 15.5 0.266667 15.5H15.7333C15.8041 15.5 15.8719 15.4718 15.9219 15.4215C15.9719 15.3713 16 15.3032 16 15.2321V14.6964C16 14.2526 15.6418 13.8929 15.2 13.8929ZM2.66667 5.85715V12.2857H1.46667C1.24577 12.2857 1.06667 12.4656 1.06667 12.6875V13.3571H14.9333V12.6875C14.9333 12.4656 14.7542 12.2857 14.5333 12.2857H13.3333V5.85715H11.2V12.2857H9.06667V5.85715H6.93333V12.2857H4.8V5.85715H2.66667Z" fill="#536C79"/>
</svg>
