<svg width="16" height="17" viewBox="0 0 16 17" fill="none" xmlns="http://www.w3.org/2000/svg">
<path d="M15.8666 3.90932C15.7966 3.62713 15.4435 3.53151 15.2378 3.73713L12.9141 6.06088L10.7929 5.70744L10.4394 3.5862L12.7632 1.26245C12.97 1.05558 12.8704 0.703078 12.5863 0.632453C11.1057 0.265579 9.47536 0.660891 8.31818 1.81776C7.07943 3.05651 6.7385 4.85213 7.25412 6.41775L0.585702 13.0862C-0.195234 13.8671 -0.195234 15.1334 0.585702 15.9143C1.36664 16.6952 2.63288 16.6952 3.41382 15.9143L10.0766 9.2515C11.6429 9.77369 13.435 9.429 14.6819 8.18213C15.8403 7.02369 16.235 5.39088 15.8666 3.90932ZM2.00007 15.2499C1.58601 15.2499 1.25007 14.914 1.25007 14.4999C1.25007 14.0856 1.58601 13.7499 2.00007 13.7499C2.41413 13.7499 2.75007 14.0856 2.75007 14.4999C2.75007 14.914 2.41413 15.2499 2.00007 15.2499Z" fill="white"/>
</svg>
